<svg version="1.1" xmlns="http://www.w3.org/2000/svg" viewBox="0 0 524.5175366926233 299.4536070256436"
     width="1049.0350733852465" height="598.9072140512872">
    <!-- svg-source:excalidraw -->

    <defs>
        <style>
            @font-face {
            font-family: "Virgil";
            src: url("https://excalidraw.com/Virgil.woff2");
            }
            @font-face {
            font-family: "Cascadia";
            src: url("https://excalidraw.com/Cascadia.woff2");
            }
        </style>
    </defs>
    <rect x="0" y="0" width="524.5175366926233" height="299.4536070256436" fill="transparent"></rect>
    <g transform="translate(56.203695148795305 135.37503229645517) rotate(0 69.11669173963037 23.910639304520373)">
        <text x="69.11669173963001" y="33.82127860904131" font-family="Virgil, Segoe UI Emoji"
              font-size="37.43222078622376px" fill="#ffff" text-anchor="middle" style="white-space: pre;"
              direction="ltr">DEV</text>
    </g>
    <g transform="translate(304.8050141988497 132.9818739251732) rotate(0 85.69143270591303 22.734461738303253)">
        <text x="85.69143270591343" y="31.468923476607138" font-family="Virgil, Segoe UI Emoji" font-size="36.1666234773311px" fill="#ffff" text-anchor="middle" style="white-space: pre;" direction="ltr">OPS</text>
    </g>
    <g id="arrow1" stroke-linecap="round"  style="--order: 1" >
        <g transform="translate(388.70588008006416 283.5078160692574) rotate(353.86323036076186 45.68110195352165 -15.36309647113103)">
            <path d="M0.27 1.19 C7.6 0.1, 27.72 -1.24, 43.08 -6.75 C58.43 -12.27, 83.93 -28.05, 92.4 -31.91 M-1.04 0.76 C6.17 -0.67, 26.53 -3.38, 41.93 -8.68 C57.33 -13.98, 82.56 -27.15, 91.36 -31.02"
                  stroke="#ffff" stroke-width="2" fill="none"></path>
        </g>
        <g transform="translate(388.70588008006416 283.5078160692574) rotate(353.86323036076186 45.68110195352165 -15.36309647113103)">
            <path d="M74.04 -12.08 C77.1 -16.8, 79.51 -18.67, 93.31 -31.58 M71.61 -12.32 C76.73 -16.37, 82.38 -20.79, 91.68 -30.21"
                  stroke="#ffff" stroke-width="2" fill="none"></path>
        </g>
        <g transform="translate(388.70588008006416 283.5078160692574) rotate(353.86323036076186 45.68110195352165 -15.36309647113103)">
            <path d="M65.97 -29.07 C70.83 -29.96, 75.07 -27.97, 93.31 -31.58 M63.54 -29.31 C70.58 -29.21, 78.2 -29.48, 91.68 -30.21"
                  stroke="#ffff" stroke-width="2" fill="none"></path>
        </g>
    </g>
    <g id="arrow8" style="--order: 8" stroke-linecap="round"  >
        <g transform="translate(133.67170039256416 273.5029332567574) rotate(6.136769639238106 -46.04079213540081 -15.278154321932561)">
            <path d="M-1.16 -1.13 C-8.19 -2.46, -27.42 -3.2, -42.59 -8.25 C-57.75 -13.31, -83.68 -27.76, -92.16 -31.45 M0.44 0.89 C-6.65 -0.31, -27.59 -2.1, -43.08 -7.3 C-58.57 -12.5, -84.11 -26.1, -92.52 -30.31"
                  stroke="#ffff" stroke-width="2" fill="none"></path>
        </g>
        <g transform="translate(133.67170039256416 273.5029332567574) rotate(6.136769639238106 -46.04079213540081 -15.278154321932561)">
            <path d="M-67.12 -25.5 C-74.43 -26.83, -80.46 -29.91, -91.3 -28.34 M-64.76 -26.44 C-70.81 -27.17, -77.27 -28.25, -92.5 -30.56"
                  stroke="#ffff" stroke-width="2" fill="none"></path>
        </g>
        <g transform="translate(133.67170039256416 273.5029332567574) rotate(6.136769639238106 -46.04079213540081 -15.278154321932561)">
            <path d="M-75.66 -8.75 C-80.64 -14.5, -84.38 -22.08, -91.3 -28.34 M-73.3 -9.69 C-77.38 -14.06, -82 -18.72, -92.5 -30.56"
                  stroke="#ffff" stroke-width="2" fill="none"></path>
        </g>
    </g>
    <g id="arrow2" style="--order: 2" stroke-linecap="round">
        <g transform="translate(458.04670039256416 186.2666051317574) rotate(299.33225367322956 45.99212386161071 -15.94880796796133)">
            <path d="M-0.76 0.17 C6.65 -1.27, 28.87 -3.19, 44.45 -8.25 C60.04 -13.31, 84.73 -26.29, 92.75 -30.2 M1.04 -0.79 C8.38 -2.16, 28.89 -2.08, 44.03 -7.3 C59.17 -12.51, 83.78 -28.12, 91.88 -32.07"
                  stroke="#ffff" stroke-width="2" fill="none"></path>
        </g>
        <g transform="translate(458.04670039256416 186.2666051317574) rotate(299.33225367322956 45.99212386161071 -15.94880796796133)">
            <path d="M74.1 -9.69 C77.29 -17.74, 86.07 -24.24, 90.84 -32.9 M74.55 -11.96 C78.3 -18.32, 84.92 -23.31, 90.92 -31.52"
                  stroke="#ffff" stroke-width="2" fill="none"></path>
        </g>
        <g transform="translate(458.04670039256416 186.2666051317574) rotate(299.33225367322956 45.99212386161071 -15.94880796796133)">
            <path d="M65.01 -26.14 C70.97 -29.21, 82.47 -30.79, 90.84 -32.9 M65.46 -28.42 C72.07 -29.78, 81.43 -29.82, 90.92 -31.52"
                  stroke="#ffff" stroke-width="2" fill="none"></path>
        </g>
    </g>
    <g id="arrow9" style="--order: 9" stroke-linecap="round">
        <g transform="translate(67.18732539256416 189.8994176317574) rotate(60.66774632677048 -46.41165070812258 -15.51788247078639)">
            <path d="M-0.82 0.06 C-8.07 -1.42, -27.09 -2.74, -42.45 -7.93 C-57.81 -13.13, -84.75 -27.29, -92.98 -31.1 M0.96 -0.95 C-6.47 -2.38, -27.08 -2.02, -42.87 -6.82 C-58.66 -11.62, -85.14 -25.99, -93.78 -29.77"
                  stroke="#ffff" stroke-width="2" fill="none"></path>
        </g>
        <g transform="translate(67.18732539256416 189.8994176317574) rotate(60.66774632677048 -46.41165070812258 -15.51788247078639)">
            <path d="M-66.33 -25.31 C-78.5 -28.36, -87.84 -27.55, -93.23 -30.66 M-65.6 -27.85 C-72.32 -27.77, -78.09 -28.43, -93.81 -29.11"
                  stroke="#ffff" stroke-width="2" fill="none"></path>
        </g>
        <g transform="translate(67.18732539256416 189.8994176317574) rotate(60.66774632677048 -46.41165070812258 -15.51788247078639)">
            <path d="M-74.52 -8.39 C-83.62 -18, -89.76 -23.81, -93.23 -30.66 M-73.79 -10.93 C-78.55 -14.55, -82.5 -19, -93.81 -29.11"
                  stroke="#ffff" stroke-width="2" fill="none"></path>
        </g>
    </g>
    <g id="arrow3" style="--order: 3"  stroke-linecap="round">
        <g transform="translate(418.05158320506416 66.39355825675739) rotate(244.98292779441127 46.22877657605841 -15.493967135013008)">
            <path d="M0.66 1.14 C7.99 -0.11, 27.85 -1.26, 43.22 -6.49 C58.6 -11.72, 84.63 -25.95, 92.91 -30.24 M-0.45 0.7 C6.76 -0.38, 26.72 -2.81, 42.15 -8.28 C57.58 -13.75, 83.63 -28.22, 92.13 -32.13"
                  stroke="#ffff" stroke-width="2" fill="none"></path>
        </g>
        <g transform="translate(418.05158320506416 66.39355825675739) rotate(244.98292779441127 46.22877657605841 -15.493967135013008)">
            <path d="M75.17 -12.53 C78.68 -17.07, 83.58 -21.86, 90.23 -30.4 M72.58 -12.86 C76.68 -15.96, 82.32 -22.06, 91.15 -32.11"
                  stroke="#ffff" stroke-width="2" fill="none"></path>
        </g>
        <g transform="translate(418.05158320506416 66.39355825675739) rotate(244.98292779441127 46.22877657605841 -15.493967135013008)">
            <path d="M66.73 -29.33 C72.4 -29.89, 79.32 -30.66, 90.23 -30.4 M64.13 -29.66 C70.19 -28.82, 77.79 -31.04, 91.15 -32.11"
                  stroke="#ffff" stroke-width="2" fill="none"></path>
        </g>
    </g>
    <g id="arrow10" style="--order: 10" stroke-linecap="round">
        <g transform="translate(93.84259883006416 83.89844106925739) rotate(115.01707220558872 -46.58404478029752 -15.630831941487486)">
            <path d="M0.93 -0.77 C-6.24 -1.89, -27.47 -2.59, -43.15 -7.57 C-58.84 -12.54, -84.77 -26.67, -93.19 -30.62 M-0.04 1.45 C-7.33 0.57, -28.27 -0.57, -43.94 -6.26 C-59.62 -11.95, -85.78 -28.7, -94.1 -32.71"
                  stroke="#ffff" stroke-width="2" fill="none"></path>
        </g>
        <g transform="translate(93.84259883006416 83.89844106925739) rotate(115.01707220558872 -46.58404478029752 -15.630831941487486)">
            <path d="M-68.23 -27.89 C-75.53 -29.88, -81.87 -31.98, -94.41 -33.37 M-67.54 -28.94 C-74.02 -29.13, -81.68 -30, -94.24 -33.32"
                  stroke="#ffff" stroke-width="2" fill="none"></path>
        </g>
        <g transform="translate(93.84259883006416 83.89844106925739) rotate(115.01707220558872 -46.58404478029752 -15.630831941487486)">
            <path d="M-77.35 -11.45 C-81.89 -18.28, -85.58 -25.15, -94.41 -33.37 M-76.66 -12.5 C-80.55 -17.43, -85.58 -23.03, -94.24 -33.32"
                  stroke="#ffff" stroke-width="2" fill="none"></path>
        </g>
    </g>
    <g id="arrow4" style="--order: 4" stroke-linecap="round">
        <g transform="translate(320.40998164256416 36.01269888175739) rotate(187.07050006689565 46.26036407722677 -15.709724135696888)">
            <path d="M0.54 0.34 C7.7 -0.77, 28.28 -2.41, 43.72 -7.76 C59.15 -13.11, 85.04 -27.98, 93.16 -31.76 M-0.64 -0.52 C6.32 -1.39, 27.38 -1.51, 42.91 -6.56 C58.43 -11.6, 84.27 -26.44, 92.51 -30.79"
                  stroke="#ffff" stroke-width="2" fill="none"></path>
        </g>
        <g transform="translate(320.40998164256416 36.01269888175739) rotate(187.07050006689565 46.26036407722677 -15.709724135696888)">
            <path d="M74.87 -9.77 C80.07 -17.41, 86.68 -26.21, 93.6 -29.74 M74.63 -10.73 C80.48 -17.49, 86.09 -23.42, 92.36 -31.21"
                  stroke="#ffff" stroke-width="2" fill="none"></path>
        </g>
        <g transform="translate(320.40998164256416 36.01269888175739) rotate(187.07050006689565 46.26036407722677 -15.709724135696888)">
            <path d="M65.89 -26.29 C74.22 -27.95, 84.1 -30.72, 93.6 -29.74 M65.65 -27.25 C74.67 -28.36, 83.36 -28.62, 92.36 -31.21"
                  stroke="#ffff" stroke-width="2" fill="none"></path>
        </g>
    </g>
    <g id="arrow11" style="--order: 11" stroke-linecap="round">
        <g transform="translate(197.39240351756416 55.48535513175739) rotate(172.92949993310438 -46.36308193401874 -15.09875168353301)">
            <path d="M0.18 0.79 C-7.06 -0.33, -27.25 -0.86, -42.68 -6.16 C-58.11 -11.46, -84.21 -26.65, -92.41 -30.99 M-1.19 0.17 C-8.58 -1.32, -27.94 -2.81, -43.22 -7.77 C-58.51 -12.74, -84.31 -25.63, -92.9 -29.61"
                  stroke="#ffff" stroke-width="2" fill="none"></path>
        </g>
        <g transform="translate(197.39240351756416 55.48535513175739) rotate(172.92949993310438 -46.36308193401874 -15.09875168353301)">
            <path d="M-64.22 -25.71 C-73.88 -27.04, -85.24 -27.13, -94.73 -28.63 M-65.36 -27.03 C-72.27 -26.92, -79.48 -28.14, -92.7 -29.06"
                  stroke="#ffff" stroke-width="2" fill="none"></path>
        </g>
        <g transform="translate(197.39240351756416 55.48535513175739) rotate(172.92949993310438 -46.36308193401874 -15.09875168353301)">
            <path d="M-72.3 -8.73 C-79.1 -16.25, -87.53 -22.5, -94.73 -28.63 M-73.45 -10.06 C-78.11 -14.4, -83.22 -20.04, -92.7 -29.06"
                  stroke="#ffff" stroke-width="2" fill="none"></path>
        </g>
    </g>
    <g id="arrow5" style="--order: 5"  stroke-linecap="round">
        <g transform="translate(237.04572383006416 103.62500356925739) rotate(131.55710732938357 46.75983888586052 -15.442092769765623)">
            <path d="M0.58 -0.84 C8.01 -2.18, 29.06 -2.65, 44.26 -7.87 C59.46 -13.1, 83.5 -28.18, 91.79 -32.22 M-0.57 1.33 C6.8 0.12, 27.95 -1.26, 43.73 -6.73 C59.51 -12.2, 86.18 -27.34, 94.09 -31.48"
                  stroke="#ffff" stroke-width="2" fill="none"></path>
        </g>
        <g transform="translate(237.04572383006416 103.62500356925739) rotate(131.55710732938357 46.75983888586052 -15.442092769765623)">
            <path d="M74.41 -9.62 C79.54 -18.54, 83.93 -20.41, 92.42 -31.61 M74.95 -10.04 C81.77 -18.66, 89.64 -25.68, 94.88 -31.85"
                  stroke="#ffff" stroke-width="2" fill="none"></path>
        </g>
        <g transform="translate(237.04572383006416 103.62500356925739) rotate(131.55710732938357 46.75983888586052 -15.442092769765623)">
            <path d="M65.49 -26.17 C73.08 -30.61, 79.91 -27.96, 92.42 -31.61 M66.03 -26.59 C76.04 -29.33, 87.11 -30.43, 94.88 -31.85"
                  stroke="#ffff" stroke-width="2" fill="none"></path>
        </g>
    </g>
    <g id="arrow12" style="--order: 12" stroke-linecap="round">
        <g transform="translate(278.53009883006416 119.49902700675739) rotate(228.44289267061643 -46.800000007948256 -15.82385143312149)">
            <path d="M-1.18 0.77 C-8.54 -0.19, -28.99 -0.96, -44.46 -6.16 C-59.93 -11.36, -86.03 -26.3, -94 -30.43 M0.4 0.13 C-6.56 -1.12, -26.94 -2.35, -42.28 -7.77 C-57.62 -13.2, -83.44 -28.75, -91.66 -32.42"
                  stroke="#ffff" stroke-width="2" fill="none"></path>
        </g>
        <g transform="translate(278.53009883006416 119.49902700675739) rotate(228.44289267061643 -46.800000007948256 -15.82385143312149)">
            <path d="M-63.13 -30.54 C-70.18 -31.87, -78.07 -29.93, -91.42 -32.69 M-64.67 -29.37 C-70.58 -29.06, -79.51 -30.18, -91.62 -31.8"
                  stroke="#ffff" stroke-width="2" fill="none"></path>
        </g>
        <g transform="translate(278.53009883006416 119.49902700675739) rotate(228.44289267061643 -46.800000007948256 -15.82385143312149)">
            <path d="M-71.79 -13.85 C-76.43 -19.63, -81.97 -22.22, -91.42 -32.69 M-73.34 -12.68 C-76.94 -16.7, -83.59 -22.21, -91.62 -31.8"
                  stroke="#ffff" stroke-width="2" fill="none"></path>
        </g>
    </g>
    <g id="arrow14" style="--order: 14" stroke-linecap="round">
        <g transform="translate(276.53302851756416 270.8955113817574) rotate(51.4801435681588 46.26577902773806 -15.99494703263008)">
            <path d="M-0.03 -0.07 C7.1 -1.59, 27.19 -2.69, 42.87 -8 C58.54 -13.31, 85.77 -28.05, 94.03 -31.92 M-1.5 -1.16 C6.02 -2.03, 29.38 -1.94, 45.27 -6.92 C61.16 -11.9, 85.99 -27.16, 93.85 -31.02"
                  stroke="#ffff" stroke-width="2" fill="none"></path>
        </g>
        <g transform="translate(276.53302851756416 270.8955113817574) rotate(51.4801435681588 46.26577902773806 -15.99494703263008)">
            <path d="M75.54 -11.39 C79.61 -14.9, 85.31 -23.88, 93.74 -31.17 M75.01 -10.57 C81.38 -17.48, 88.33 -24.66, 94.22 -31.74"
                  stroke="#ffff" stroke-width="2" fill="none"></path>
        </g>
        <g transform="translate(276.53302851756416 270.8955113817574) rotate(51.4801435681588 46.26577902773806 -15.99494703263008)">
            <path d="M66.54 -27.9 C73.53 -26.33, 81.99 -30.24, 93.74 -31.17 M66.01 -27.09 C75.44 -28.16, 85.57 -29.49, 94.22 -31.74"
                  stroke="#ffff" stroke-width="2" fill="none"></path>
        </g>
    </g>
    <g id="arrow7" style="--order: 7" stroke-linecap="round">
        <g transform="translate(232.20274394949047 266.3464915550776) rotate(308.5198564318412 -39.49679365548218 -13.878811884260358)">
            <path d="M-0.81 -1.19 C-5.84 -2.14, -15.96 -0.18, -29 -4.74 C-42.04 -9.31, -70.63 -24.66, -79.05 -28.56 M0.96 0.8 C-4.3 -0.02, -16.29 1.48, -29.78 -3.17 C-43.26 -7.83, -71.64 -22.6, -79.95 -27.12"
                  stroke="#ffff" stroke-width="2" fill="none"></path>
        </g>
        <g transform="translate(232.20274394949047 266.3464915550776) rotate(308.5198564318412 -39.49679365548218 -13.878811884260358)">
            <path d="M-54.7 -22.87 C-63.42 -25.49, -73.92 -27.73, -78.83 -26.47 M-52.57 -24.39 C-59.29 -23.18, -64.5 -25.29, -79.12 -26.34"
                  stroke="#ffff" stroke-width="2" fill="none"></path>
        </g>
        <g transform="translate(232.20274394949047 266.3464915550776) rotate(308.5198564318412 -39.49679365548218 -13.878811884260358)">
            <path d="M-63.45 -6.23 C-68.84 -15.37, -75.88 -24.2, -78.83 -26.47 M-61.32 -7.74 C-66.17 -9.99, -69.58 -15.52, -79.12 -26.34"
                  stroke="#ffff" stroke-width="2" fill="none"></path>
        </g>
    </g>
    <g id="arrow6" style="--order: 6" stroke-linecap="round">
        <g transform="translate(286.50595642046574 174.40561428514047) rotate(308.5198564318412 -33.96275425980275 7.9529319009034225)">
            <path d="M0.38 0.69 C-4.66 2.79, -18.33 10.01, -29.69 12.36 C-41.05 14.72, -61.46 14.32, -67.8 14.82 M-0.87 0 C-6.13 1.75, -19.4 7.75, -30.64 10.4 C-41.88 13.05, -62.23 14.89, -68.31 15.91"
                  stroke="#ffff" stroke-width="2" fill="none"></path>
        </g>
        <g transform="translate(286.50595642046574 174.40561428514047) rotate(308.5198564318412 -33.96275425980275 7.9529319009034225)">
            <path d="M-50.01 6.95 C-56.64 10.93, -63.83 14.2, -68.16 14.03 M-51.76 7.57 C-54.71 9.85, -59.7 11.01, -67.98 16.12"
                  stroke="#ffff" stroke-width="2" fill="none"></path>
        </g>
        <g transform="translate(286.50595642046574 174.40561428514047) rotate(308.5198564318412 -33.96275425980275 7.9529319009034225)">
            <path d="M-48.29 20.09 C-55.48 19.49, -63.28 18.18, -68.16 14.03 M-50.05 20.71 C-53.52 19.49, -58.97 17.16, -67.98 16.12"
                  stroke="#ffff" stroke-width="2" fill="none"></path>
        </g>
    </g>
    <g id="arrow13" style="--order: 13" stroke-linecap="round">
        <g transform="translate(227.44932126082313 179.15170803514047) rotate(51.4801435681588 34.22725209298824 7.075194960804765)">
            <path d="M-1.15 -0.51 C3.85 1.32, 18.33 9.31, 29.73 12.06 C41.13 14.8, 60.8 15.28, 67.25 15.98 M0.45 -1.82 C5.32 0.73, 17.28 10.96, 28.81 13.59 C40.33 16.23, 62.95 13.91, 69.6 14.01"
                  stroke="#ffff" stroke-width="2" fill="none"></path>
        </g>
        <g transform="translate(227.44932126082313 179.15170803514047) rotate(51.4801435681588 34.22725209298824 7.075194960804765)">
            <path d="M50.84 21.41 C56.6 17.79, 62.74 17.65, 71.17 14.62 M51.98 21.4 C58.48 19.32, 65.71 14.89, 69.3 14.2"
                  stroke="#ffff" stroke-width="2" fill="none"></path>
        </g>
        <g transform="translate(227.44932126082313 179.15170803514047) rotate(51.4801435681588 34.22725209298824 7.075194960804765)">
            <path d="M50.34 8.17 C56.35 8.24, 62.63 11.78, 71.17 14.62 M51.48 8.16 C58.28 11.33, 65.71 12.15, 69.3 14.2"
                  stroke="#ffff" stroke-width="2" fill="none"></path>
        </g>
    </g>
</svg>