<svg id="Calque_1" data-name="Calque 1" xmlns="http://www.w3.org/2000/svg" viewBox="0 0 24.42 39.68"><defs><style>.cls-1{fill:#ffffe0;}.cls-1,.cls-2{fill-rule:evenodd;}.cls-2{fill:#ffffe0;}</style></defs><g id="Group_16" data-name="Group 16"><path class="cls-1" d="M181.46,12.05a1,1,0,0,0-.78-.23l-1.45.22c-.77,0-.82-.35-.7-.67s.48-.74.2-.62c-.72-.56-14.52-3.61-21.62-5a201.3,201.3,0,0,1,1.09,38,13.51,13.51,0,0,1,2.32.43c.79,1.66,4.74,1.44,6.7.49.32-.9,3.42-8.54,6.77-16.16s6.9-15.22,7.24-16.3C181.56,12.33,181.6,12.19,181.46,12.05Z" transform="translate(-157.11 -5.73)"/><path id="Fill_4" data-name="Fill 4" class="cls-2" d="M176.13,12c0,.65-2.67,7.4-2.67,7.4S167.12,39,166.69,40.09s-1.63,2.71-2.88,2.3a6.38,6.38,0,0,0-2.79-.1L160,44a4.45,4.45,0,0,1,.53.14c.39.81,1.54,1.18,2.85,1.22a7.35,7.35,0,0,0,3.84-.73c.76-.54,3.43-8.54,6.78-16.16s6.9-15.22,7.24-16.3l.2,0c.06,0,.09,0,.1,0a.25.25,0,0,0-.07-.12.93.93,0,0,0-.61-.24h-.17l-1.45.22h0c-1.6-.05-.47-1.29-.47-1.29A15.7,15.7,0,0,0,176,10C176.08,11,176.13,11.78,176.13,12Z" transform="translate(-157.11 -5.73)"/></g></svg>